<svg width="24" height="25" viewBox="0 0 24 25" fill="none" xmlns="http://www.w3.org/2000/svg">
<path d="M15.586 11.4894L11.636 7.53944C11.4538 7.35084 11.353 7.09823 11.3553 6.83604C11.3576 6.57384 11.4628 6.32303 11.6482 6.13762C11.8336 5.95221 12.0844 5.84704 12.3466 5.84476C12.6088 5.84249 12.8614 5.94328 13.05 6.12544L18.707 11.7824C18.8002 11.8751 18.8741 11.9853 18.9246 12.1066C18.9751 12.2279 19.001 12.358 19.001 12.4894C19.001 12.6208 18.9751 12.751 18.9246 12.8723C18.8741 12.9936 18.8002 13.1038 18.707 13.1964L13.05 18.8534C12.9578 18.9489 12.8474 19.0251 12.7254 19.0775C12.6034 19.1299 12.4722 19.1575 12.3394 19.1587C12.2066 19.1598 12.0749 19.1345 11.952 19.0843C11.8291 19.034 11.7175 18.9597 11.6236 18.8658C11.5297 18.7719 11.4555 18.6603 11.4052 18.5374C11.3549 18.4145 11.3296 18.2828 11.3307 18.15C11.3319 18.0173 11.3595 17.886 11.4119 17.764C11.4643 17.642 11.5405 17.5317 11.636 17.4394L15.586 13.4894H6C5.73478 13.4894 5.48043 13.3841 5.29289 13.1965C5.10536 13.009 5 12.7547 5 12.4894C5 12.2242 5.10536 11.9699 5.29289 11.7823C5.48043 11.5948 5.73478 11.4894 6 11.4894H15.586V11.4894Z" fill="#D61C2C"/>
</svg>
