<svg width="24" height="24" viewBox="0 0 24 24" fill="none" xmlns="http://www.w3.org/2000/svg">
<path d="M13 15.743L16.95 11.793C17.0422 11.6975 17.1526 11.6213 17.2746 11.5689C17.3966 11.5165 17.5278 11.4889 17.6606 11.4877C17.7934 11.4866 17.925 11.5119 18.0479 11.5622C18.1708 11.6125 18.2825 11.6867 18.3764 11.7806C18.4703 11.8745 18.5445 11.9861 18.5948 12.109C18.6451 12.2319 18.6704 12.3636 18.6692 12.4964C18.6681 12.6292 18.6405 12.7604 18.5881 12.8824C18.5357 13.0044 18.4595 13.1148 18.364 13.207L12.707 18.864C12.6143 18.9572 12.5042 19.0311 12.3828 19.0816C12.2615 19.1321 12.1314 19.158 12 19.158C11.8686 19.158 11.7385 19.1321 11.6171 19.0816C11.4958 19.0311 11.3856 18.9572 11.293 18.864L5.63598 13.207C5.54047 13.1148 5.46428 13.0044 5.41188 12.8824C5.35947 12.7604 5.33188 12.6292 5.33073 12.4964C5.32957 12.3636 5.35487 12.2319 5.40516 12.109C5.45544 11.9861 5.52969 11.8745 5.62358 11.7806C5.71747 11.6867 5.82913 11.6125 5.95202 11.5622C6.07492 11.5119 6.2066 11.4866 6.33938 11.4877C6.47216 11.4889 6.60338 11.5165 6.72538 11.5689C6.84739 11.6213 6.95773 11.6975 7.04998 11.793L11 15.743V6.157C11 5.89178 11.1053 5.63743 11.2929 5.44989C11.4804 5.26235 11.7348 5.157 12 5.157C12.2652 5.157 12.5195 5.26235 12.7071 5.44989C12.8946 5.63743 13 5.89178 13 6.157V15.743Z" fill="black"/>
</svg>
