<svg width="24" height="24" viewBox="0 0 24 24" fill="none" xmlns="http://www.w3.org/2000/svg">
<path d="M5.598 9L11.345 14.12C11.5281 14.2831 11.7648 14.3732 12.01 14.3732C12.2552 14.3732 12.4919 14.2831 12.675 14.12L18.423 9H5.598ZM20 10.273L14.006 15.614C13.4565 16.1037 12.7461 16.3744 12.01 16.3744C11.2739 16.3744 10.5635 16.1037 10.014 15.614L4 10.254V19H20V10.273ZM4 7H20C20.5304 7 21.0391 7.21071 21.4142 7.58579C21.7893 7.96086 22 8.46957 22 9V19C22 19.5304 21.7893 20.0391 21.4142 20.4142C21.0391 20.7893 20.5304 21 20 21H4C3.46957 21 2.96086 20.7893 2.58579 20.4142C2.21071 20.0391 2 19.5304 2 19V9C2 8.46957 2.21071 7.96086 2.58579 7.58579C2.96086 7.21071 3.46957 7 4 7V7Z" fill="white"/>
</svg>
