<svg width="24" height="24" viewBox="0 0 24 24" fill="none" xmlns="http://www.w3.org/2000/svg">
<path d="M16.017 1.03003H7.947C6.37015 1.03188 4.85844 1.65917 3.74353 2.77427C2.62862 3.88936 2.00159 5.40118 2 6.97803L2 15.048C2.00185 16.6249 2.62914 18.1366 3.74424 19.2515C4.85933 20.3664 6.37115 20.9934 7.948 20.995H16.018C17.5948 20.9932 19.1066 20.3659 20.2215 19.2508C21.3364 18.1357 21.9634 16.6239 21.965 15.047V6.97703C21.9631 5.40018 21.3359 3.88846 20.2208 2.77356C19.1057 1.65865 17.5938 1.03162 16.017 1.03003ZM19.957 15.047C19.957 15.5644 19.8551 16.0768 19.6571 16.5548C19.4591 17.0328 19.1689 17.4672 18.803 17.833C18.4371 18.1989 18.0028 18.4891 17.5248 18.6871C17.0468 18.8851 16.5344 18.987 16.017 18.987H7.947C6.90222 18.9868 5.90032 18.5715 5.16165 17.8327C4.42297 17.0938 4.008 16.0918 4.008 15.047V6.97703C4.00827 5.93225 4.42349 4.93035 5.16235 4.19167C5.90122 3.453 6.90322 3.03803 7.948 3.03803H16.018C17.0628 3.03829 18.0647 3.45352 18.8034 4.19238C19.542 4.93125 19.957 5.93325 19.957 6.97803V15.047Z" fill="white"/>
<path d="M11.9818 6.81909C10.6133 6.82121 9.30136 7.36588 8.33372 8.3337C7.36609 9.30152 6.82168 10.6135 6.81982 11.9821C6.82141 13.351 7.36585 14.6634 8.33372 15.6315C9.3016 16.5996 10.6139 17.1442 11.9828 17.1461C13.3519 17.1445 14.6645 16.5999 15.6326 15.6318C16.6007 14.6637 17.1452 13.3512 17.1468 11.9821C17.1447 10.6132 16.5998 9.30098 15.6315 8.33329C14.6633 7.3656 13.3507 6.82141 11.9818 6.82009V6.81909ZM11.9818 15.1381C11.1451 15.1381 10.3426 14.8057 9.7509 14.214C9.15922 13.6223 8.82682 12.8198 8.82682 11.9831C8.82682 11.1463 9.15922 10.3438 9.7509 9.75217C10.3426 9.16049 11.1451 8.82809 11.9818 8.82809C12.8186 8.82809 13.6211 9.16049 14.2127 9.75217C14.8044 10.3438 15.1368 11.1463 15.1368 11.9831C15.1368 12.8198 14.8044 13.6223 14.2127 14.214C13.6211 14.8057 12.8186 15.1381 11.9818 15.1381Z" fill="white"/>
<path d="M17.1559 8.09509C17.8391 8.09509 18.3929 7.54127 18.3929 6.85809C18.3929 6.17492 17.8391 5.62109 17.1559 5.62109C16.4728 5.62109 15.9189 6.17492 15.9189 6.85809C15.9189 7.54127 16.4728 8.09509 17.1559 8.09509Z" fill="white"/>
</svg>
