<svg width="24" height="24" viewBox="0 0 24 24" fill="none" xmlns="http://www.w3.org/2000/svg">
<path d="M21.959 13.6229V21.0019H17.681V14.1169C17.681 12.3869 17.062 11.2069 15.514 11.2069C14.332 11.2069 13.628 12.0029 13.319 12.7719C13.206 13.0469 13.177 13.4299 13.177 13.8149V21.0019H8.897C8.897 21.0019 8.955 9.34193 8.897 8.13293H13.177V9.95693L13.149 9.99893H13.177V9.95693C13.745 9.08193 14.76 7.83093 17.033 7.83093C19.848 7.83093 21.959 9.67093 21.959 13.6229ZM4.421 1.92993C2.958 1.92993 2 2.88993 2 4.15293C2 5.38793 2.93 6.37693 4.365 6.37693H4.393C5.886 6.37693 6.813 5.38793 6.813 4.15293C6.787 2.88993 5.886 1.92993 4.421 1.92993ZM2.254 21.0019H6.532V8.13293H2.254V21.0019Z" fill="white"/>
</svg>
