<svg width="144" height="139" viewBox="0 0 144 139" fill="none" xmlns="http://www.w3.org/2000/svg">
<g filter="url(#filter0_d_124_345)">
<path d="M100.107 26.1969L75.2435 26.1969L75.2435 45.0448L100.107 45.0448L100.107 99.1719H120.322L120.322 3.48287L57.4548 3.48287L57.4548 63.8926L100.107 63.8926M23.6785 98.6889L23.6785 2.99987L46.1347 3.48287L46.1347 78.1493L90.4044 78.1493V99.1719L23.6785 98.6889Z" stroke="#EDEEE9" stroke-width="4.40816" shape-rendering="crispEdges"/>
</g>
<g filter="url(#filter1_d_124_345)">
<path d="M15.2394 133.058C14.0189 133.058 13.0589 132.818 12.3594 132.338C11.6737 131.858 11.1937 131.207 10.9194 130.384C10.6451 129.547 10.508 128.587 10.508 127.504V121.559C10.508 120.42 10.6451 119.433 10.9194 118.596C11.1937 117.76 11.6737 117.115 12.3594 116.663C13.0589 116.21 14.0189 115.984 15.2394 115.984C16.3914 115.984 17.2897 116.183 17.9343 116.58C18.5926 116.964 19.0589 117.52 19.3331 118.247C19.6074 118.973 19.7446 119.817 19.7446 120.777V122.176H16.8234V120.736C16.8234 120.269 16.796 119.844 16.7411 119.46C16.7 119.076 16.5697 118.775 16.3503 118.555C16.1446 118.322 15.7811 118.205 15.26 118.205C14.7389 118.205 14.3549 118.329 14.108 118.576C13.8749 118.809 13.724 119.131 13.6554 119.543C13.5869 119.94 13.5526 120.393 13.5526 120.9V128.141C13.5526 128.745 13.6006 129.246 13.6966 129.643C13.7926 130.027 13.964 130.322 14.2109 130.528C14.4714 130.72 14.8211 130.816 15.26 130.816C15.7674 130.816 16.124 130.699 16.3297 130.466C16.5491 130.219 16.6863 129.897 16.7411 129.499C16.796 129.102 16.8234 128.656 16.8234 128.162V126.66H19.7446V127.997C19.7446 128.985 19.6143 129.863 19.3537 130.631C19.0931 131.385 18.6337 131.982 17.9754 132.42C17.3309 132.846 16.4189 133.058 15.2394 133.058ZM26.39 133.058C25.2105 133.058 24.2711 132.839 23.5717 132.4C22.8722 131.961 22.3717 131.33 22.0699 130.507C21.7682 129.684 21.6174 128.711 21.6174 127.586V121.353C21.6174 120.228 21.7682 119.268 22.0699 118.473C22.3717 117.664 22.8722 117.047 23.5717 116.621C24.2711 116.196 25.2105 115.984 26.39 115.984C27.5968 115.984 28.5431 116.196 29.2288 116.621C29.9282 117.047 30.4288 117.664 30.7305 118.473C31.046 119.268 31.2037 120.228 31.2037 121.353V127.607C31.2037 128.718 31.046 129.684 30.7305 130.507C30.4288 131.316 29.9282 131.947 29.2288 132.4C28.5431 132.839 27.5968 133.058 26.39 133.058ZM26.39 130.816C26.8974 130.816 27.2677 130.706 27.5008 130.487C27.7477 130.267 27.9122 129.966 27.9945 129.582C28.0768 129.198 28.118 128.779 28.118 128.327V120.653C28.118 120.187 28.0768 119.769 27.9945 119.399C27.9122 119.028 27.7477 118.74 27.5008 118.535C27.2677 118.315 26.8974 118.205 26.39 118.205C25.91 118.205 25.5465 118.315 25.2997 118.535C25.0528 118.74 24.8882 119.028 24.806 119.399C24.7237 119.769 24.6825 120.187 24.6825 120.653V128.327C24.6825 128.779 24.7168 129.198 24.7854 129.582C24.8677 129.966 25.0322 130.267 25.2791 130.487C25.526 130.706 25.8962 130.816 26.39 130.816ZM33.4558 132.832V116.169H35.5746L39.6272 125.673V116.169H42.1369V132.832H40.1209L36.0478 122.875V132.832H33.4558ZM48.8622 133.058C47.861 133.058 47.0244 132.866 46.3524 132.482C45.6804 132.084 45.173 131.508 44.8302 130.754C44.4873 130 44.2953 129.074 44.2542 127.977L46.8667 127.463C46.8942 128.107 46.9696 128.676 47.093 129.17C47.2302 129.664 47.429 130.048 47.6896 130.322C47.9639 130.583 48.3204 130.713 48.7593 130.713C49.253 130.713 49.6027 130.569 49.8084 130.281C50.0142 129.979 50.117 129.602 50.117 129.15C50.117 128.423 49.9524 127.826 49.6233 127.36C49.2942 126.893 48.8553 126.427 48.3067 125.961L46.2084 124.109C45.6187 123.602 45.1456 123.04 44.789 122.423C44.4462 121.792 44.2747 121.017 44.2747 120.098C44.2747 118.781 44.6587 117.767 45.4267 117.053C46.1947 116.34 47.2439 115.984 48.5742 115.984C49.3559 115.984 50.0073 116.107 50.5284 116.354C51.0496 116.587 51.461 116.916 51.7627 117.341C52.0782 117.767 52.3113 118.253 52.4622 118.802C52.613 119.337 52.709 119.906 52.7502 120.509L50.1582 120.962C50.1307 120.441 50.069 119.975 49.973 119.563C49.8907 119.152 49.733 118.829 49.4999 118.596C49.2804 118.363 48.9513 118.247 48.5124 118.247C48.0599 118.247 47.7102 118.397 47.4633 118.699C47.2302 118.987 47.1136 119.351 47.1136 119.789C47.1136 120.352 47.2302 120.818 47.4633 121.188C47.6964 121.545 48.0324 121.915 48.4713 122.299L50.549 124.13C51.2347 124.706 51.8176 125.385 52.2976 126.167C52.7913 126.935 53.0382 127.867 53.0382 128.964C53.0382 129.76 52.8599 130.466 52.5033 131.083C52.1604 131.7 51.6736 132.187 51.0427 132.544C50.4256 132.887 49.6987 133.058 48.8622 133.058ZM56.497 132.832V118.411H53.8433V116.169H62.1542V118.411H59.5416V132.832H56.497ZM63.67 132.832V116.169H67.6609C68.7855 116.169 69.7318 116.306 70.4998 116.58C71.2815 116.841 71.8712 117.293 72.2689 117.938C72.6803 118.583 72.8861 119.46 72.8861 120.571C72.8861 121.243 72.8243 121.847 72.7009 122.381C72.5775 122.916 72.3649 123.376 72.0632 123.76C71.7752 124.13 71.3706 124.418 70.8495 124.624L73.1741 132.832H70.1295L68.1135 125.2H66.7146V132.832H63.67ZM66.7146 123.287H67.6609C68.2506 123.287 68.7169 123.204 69.0598 123.04C69.4163 122.861 69.6701 122.587 69.8209 122.217C69.9718 121.833 70.0472 121.346 70.0472 120.756C70.0472 119.92 69.8895 119.296 69.5741 118.884C69.2723 118.459 68.6895 118.247 67.8255 118.247H66.7146V123.287ZM79.7079 133.058C78.4736 133.058 77.5136 132.832 76.8279 132.379C76.1422 131.927 75.669 131.282 75.4085 130.446C75.1479 129.609 75.0176 128.608 75.0176 127.442V116.169H77.9799V127.792C77.9799 128.313 78.0142 128.807 78.0827 129.273C78.1513 129.726 78.309 130.096 78.5559 130.384C78.8165 130.658 79.2005 130.795 79.7079 130.795C80.2428 130.795 80.6268 130.658 80.8599 130.384C81.1068 130.096 81.2645 129.726 81.333 129.273C81.4153 128.807 81.4565 128.313 81.4565 127.792V116.169H84.3982V127.442C84.3982 128.608 84.2679 129.609 84.0073 130.446C83.7468 131.282 83.2736 131.927 82.5879 132.379C81.9159 132.832 80.9559 133.058 79.7079 133.058ZM91.2774 133.058C90.0568 133.058 89.0968 132.818 88.3974 132.338C87.7117 131.858 87.2317 131.207 86.9574 130.384C86.6831 129.547 86.546 128.587 86.546 127.504V121.559C86.546 120.42 86.6831 119.433 86.9574 118.596C87.2317 117.76 87.7117 117.115 88.3974 116.663C89.0968 116.21 90.0568 115.984 91.2774 115.984C92.4294 115.984 93.3277 116.183 93.9723 116.58C94.6305 116.964 95.0968 117.52 95.3711 118.247C95.6454 118.973 95.7825 119.817 95.7825 120.777V122.176H92.8614V120.736C92.8614 120.269 92.834 119.844 92.7791 119.46C92.738 119.076 92.6077 118.775 92.3883 118.555C92.1825 118.322 91.8191 118.205 91.298 118.205C90.7768 118.205 90.3928 118.329 90.146 118.576C89.9128 118.809 89.762 119.131 89.6934 119.543C89.6248 119.94 89.5905 120.393 89.5905 120.9V128.141C89.5905 128.745 89.6385 129.246 89.7345 129.643C89.8305 130.027 90.002 130.322 90.2488 130.528C90.5094 130.72 90.8591 130.816 91.298 130.816C91.8054 130.816 92.162 130.699 92.3677 130.466C92.5871 130.219 92.7243 129.897 92.7791 129.499C92.834 129.102 92.8614 128.656 92.8614 128.162V126.66H95.7825V127.997C95.7825 128.985 95.6523 129.863 95.3917 130.631C95.1311 131.385 94.6717 131.982 94.0134 132.42C93.3688 132.846 92.4568 133.058 91.2774 133.058ZM99.5685 132.832V118.411H96.9148V116.169H105.226V118.411H102.613V132.832H99.5685ZM106.824 132.832V116.169H109.827V132.832H106.824ZM116.932 133.058C115.753 133.058 114.814 132.839 114.114 132.4C113.415 131.961 112.914 131.33 112.612 130.507C112.311 129.684 112.16 128.711 112.16 127.586V121.353C112.16 120.228 112.311 119.268 112.612 118.473C112.914 117.664 113.415 117.047 114.114 116.621C114.814 116.196 115.753 115.984 116.932 115.984C118.139 115.984 119.086 116.196 119.771 116.621C120.471 117.047 120.971 117.664 121.273 118.473C121.588 119.268 121.746 120.228 121.746 121.353V127.607C121.746 128.718 121.588 129.684 121.273 130.507C120.971 131.316 120.471 131.947 119.771 132.4C119.086 132.839 118.139 133.058 116.932 133.058ZM116.932 130.816C117.44 130.816 117.81 130.706 118.043 130.487C118.29 130.267 118.455 129.966 118.537 129.582C118.619 129.198 118.66 128.779 118.66 128.327V120.653C118.66 120.187 118.619 119.769 118.537 119.399C118.455 119.028 118.29 118.74 118.043 118.535C117.81 118.315 117.44 118.205 116.932 118.205C116.452 118.205 116.089 118.315 115.842 118.535C115.595 118.74 115.431 119.028 115.348 119.399C115.266 119.769 115.225 120.187 115.225 120.653V128.327C115.225 128.779 115.259 129.198 115.328 129.582C115.41 129.966 115.575 130.267 115.822 130.487C116.068 130.706 116.439 130.816 116.932 130.816ZM123.998 132.832V116.169H126.117L130.17 125.673V116.169H132.679V132.832H130.663L126.59 122.875V132.832H123.998Z" fill="#EDEEE9"/>
</g>
<defs>
<filter id="filter0_d_124_345" x="21.4722" y="0.747803" width="106.022" height="105.615" filterUnits="userSpaceOnUse" color-interpolation-filters="sRGB">
<feFlood flood-opacity="0" result="BackgroundImageFix"/>
<feColorMatrix in="SourceAlpha" type="matrix" values="0 0 0 0 0 0 0 0 0 0 0 0 0 0 0 0 0 0 127 0" result="hardAlpha"/>
<feOffset dx="2.48327" dy="2.48543"/>
<feGaussianBlur stdDeviation="1.24271"/>
<feComposite in2="hardAlpha" operator="out"/>
<feColorMatrix type="matrix" values="0 0 0 0 0 0 0 0 0 0 0 0 0 0 0 0 0 0 0.25 0"/>
<feBlend mode="normal" in2="BackgroundImageFix" result="effect1_dropShadow_124_345"/>
<feBlend mode="normal" in="SourceGraphic" in2="effect1_dropShadow_124_345" result="shape"/>
</filter>
<filter id="filter1_d_124_345" x="8.02268" y="115.984" width="127.142" height="22.045" filterUnits="userSpaceOnUse" color-interpolation-filters="sRGB">
<feFlood flood-opacity="0" result="BackgroundImageFix"/>
<feColorMatrix in="SourceAlpha" type="matrix" values="0 0 0 0 0 0 0 0 0 0 0 0 0 0 0 0 0 0 127 0" result="hardAlpha"/>
<feOffset dy="2.48538"/>
<feGaussianBlur stdDeviation="1.24269"/>
<feComposite in2="hardAlpha" operator="out"/>
<feColorMatrix type="matrix" values="0 0 0 0 0 0 0 0 0 0 0 0 0 0 0 0 0 0 0.25 0"/>
<feBlend mode="normal" in2="BackgroundImageFix" result="effect1_dropShadow_124_345"/>
<feBlend mode="normal" in="SourceGraphic" in2="effect1_dropShadow_124_345" result="shape"/>
</filter>
</defs>
</svg>
