<svg width="24" height="24" viewBox="0 0 24 24" fill="none" xmlns="http://www.w3.org/2000/svg">
<path d="M12 22.0649C7.333 15.9749 5 11.6419 5 9.06494C5 7.20843 5.7375 5.42795 7.05025 4.11519C8.36301 2.80244 10.1435 2.06494 12 2.06494C13.8565 2.06494 15.637 2.80244 16.9497 4.11519C18.2625 5.42795 19 7.20843 19 9.06494C19 11.6419 16.667 15.9749 12 22.0649ZM12 13.0649C13.0609 13.0649 14.0783 12.6435 14.8284 11.8934C15.5786 11.1432 16 10.1258 16 9.06494C16 8.00408 15.5786 6.98666 14.8284 6.23651C14.0783 5.48637 13.0609 5.06494 12 5.06494C10.9391 5.06494 9.92172 5.48637 9.17157 6.23651C8.42143 6.98666 8 8.00408 8 9.06494C8 10.1258 8.42143 11.1432 9.17157 11.8934C9.92172 12.6435 10.9391 13.0649 12 13.0649Z" fill="white"/>
</svg>
